# xmcd
#
# Track frame offsets:
#	150
#	12448
#	22321
#	32194
#	43346
#	54169
#	66683
#	76125
#	85967
#	96970
#
# Disc length: 1436 seconds
#
# Revision: 0
# Processed by: cddbd v1.5.2PL0 Copyright (c) Steve Scherf et al.
# Submitted via: EasyCDDAExtractor 4.6.9.1
#
DISCID=87059a0a
DTITLE=Barbara Mandrell - The Ultimate Barbara Mandrell
DYEAR=1995
DGENRE=Country
TTITLE0=Midnight Oil
TTITLE1=Treat Him Right
TTITLE2=How Can It Be Wrong
TTITLE3=Something
TTITLE4=Show Me
TTITLE5=A Very Special Love Song
TTITLE6=Tonight My Baby's Coming Home
TTITLE7=After Closing Time
TTITLE8=I Started Loving You Again
TTITLE9=Satisfied
EXTD=
EXTT0=
EXTT1=
EXTT2=
EXTT3=
EXTT4=
EXTT5=
EXTT6=
EXTT7=
EXTT8=
EXTT9=
PLAYORDER=
